<?xml version="1.0" standalone="no"?>
<!DOCTYPE svg PUBLIC "-//W3C//DTD SVG 20010904//EN"
 "http://www.w3.org/TR/2001/REC-SVG-20010904/DTD/svg10.dtd">
<svg version="1.0" xmlns="http://www.w3.org/2000/svg"
 width="1280.000000pt" height="1280.000000pt" viewBox="0 0 1280.000000 1280.000000"
 preserveAspectRatio="xMidYMid meet">

<g transform="translate(0.000000,1280.000000) scale(0.100000,-0.100000)"
fill="#343a40" stroke="none">
<path d="M8210 10270 c-118 -13 -266 -45 -395 -88 -235 -77 -586 -277 -834
-476 -51 -41 -203 -171 -338 -288 -442 -385 -695 -572 -938 -695 -236 -119
-395 -165 -580 -165 -138 0 -202 11 -401 67 -215 61 -303 72 -419 52 -206 -37
-360 -163 -434 -357 -21 -56 -25 -82 -25 -185 0 -100 3 -130 22 -181 l23 -62
-56 -56 c-76 -75 -108 -147 -113 -252 -5 -90 11 -154 56 -232 13 -24 23 -44
21 -46 -2 -2 -63 -22 -135 -45 -641 -201 -1093 -552 -1366 -1061 -131 -243
-209 -554 -208 -828 1 -101 22 -317 33 -328 2 -3 8 39 12 93 50 693 461 1310
1075 1618 255 127 420 174 1285 365 468 103 637 152 873 253 333 143 618 381
1028 862 438 514 534 616 692 733 290 215 569 320 940 353 364 32 737 -64
1044 -270 355 -238 560 -540 623 -920 24 -143 16 -354 -18 -502 -53 -224 -161
-428 -311 -589 -99 -105 0 -21 120 102 120 123 178 198 260 335 117 194 193
414 229 663 22 145 17 497 -9 635 -92 497 -317 895 -665 1175 -299 240 -707
360 -1091 320z m47 -196 c60 -19 123 -67 123 -94 0 -37 -14 -50 -69 -66 -31
-8 -123 -38 -205 -66 -90 -30 -175 -53 -213 -56 -212 -17 -245 164 -47 255
116 53 295 65 411 27z m357 -105 c35 -27 37 -90 4 -113 -67 -47 -158 13 -128
85 21 49 80 63 124 28z m-511 -259 c49 -11 131 -40 183 -64 90 -43 214 -121
214 -136 0 -4 -37 5 -83 21 -163 53 -235 63 -452 63 -169 0 -217 -3 -310 -22
-130 -27 -244 -64 -375 -122 -52 -23 -102 -44 -110 -47 -27 -11 74 88 135 132
106 76 276 150 410 180 94 20 284 18 388 -5z m-748 -400 c-11 -4 -51 -21 -90
-36 -169 -68 -335 -213 -415 -363 -61 -114 -109 -143 -180 -106 -57 29 -66 90
-25 172 85 170 307 303 555 333 91 10 180 11 155 0z m-1226 -832 c-340 -478
-843 -899 -1226 -1027 -117 -39 -236 -54 -379 -46 -84 4 -146 3 -171 -4 -108
-29 -129 -151 -29 -163 39 -4 42 -19 11 -56 -26 -31 -98 -62 -145 -62 -58 0
-132 31 -174 73 -82 83 -87 197 -10 273 26 27 26 28 10 61 -36 76 -7 148 77
191 58 30 127 33 333 13 151 -15 233 -9 304 22 l35 15 -33 1 c-89 2 -261 73
-331 136 -106 96 -109 224 -8 299 41 31 145 29 210 -2 31 -16 47 -30 47 -43 0
-10 -4 -19 -9 -19 -5 0 -14 -13 -21 -29 -14 -35 3 -75 50 -115 157 -132 551
-25 1078 292 175 106 409 260 419 275 5 8 8 8 10 0 2 -6 -19 -44 -48 -85z
m-1835 -89 c43 -51 33 -110 -30 -171 -43 -42 -142 -98 -172 -98 -61 0 -109 62
-98 126 17 86 128 173 223 174 45 0 54 -4 77 -31z m-96 -285 c57 -40 -5 -128
-64 -90 -31 21 -39 52 -20 81 19 29 51 32 84 9z"/>
<path d="M10124 9275 c-62 -66 -57 -152 21 -350 77 -196 89 -256 90 -435 0
-112 -4 -162 -13 -179 -25 -42 9 -19 50 35 197 258 222 701 52 903 -35 42 -74
61 -125 61 -35 0 -47 -6 -75 -35z"/>
<path d="M5714 9228 c-89 -127 -322 -205 -511 -172 -74 13 -87 12 -123 -2 -69
-28 -91 -109 -50 -183 27 -47 75 -78 155 -99 60 -15 70 -15 143 0 44 9 104 28
134 43 167 82 294 261 286 404 l-3 53 -31 -44z"/>
<path d="M8416 9138 c-35 -32 -41 -66 -17 -105 46 -74 161 -44 161 42 0 73
-89 112 -144 63z"/>
<path d="M8828 8939 c-33 -19 -22 -53 25 -79 114 -63 181 -143 232 -282 23
-63 44 -102 65 -120 40 -36 88 -38 120 -3 20 22 22 31 18 88 -15 186 -228 408
-392 407 -28 0 -59 -5 -68 -11z"/>
<path d="M7718 8850 c-135 -34 -236 -87 -351 -187 -153 -133 -766 -685 -793
-714 -76 -81 -148 -227 -178 -357 -23 -101 -21 -269 4 -366 19 -75 92 -237
115 -256 14 -11 335 252 335 274 0 8 -7 31 -16 52 -22 52 -22 184 0 244 27 73
63 116 201 239 507 449 633 560 672 587 105 76 259 84 389 20 70 -35 86 -50
266 -249 306 -339 315 -352 338 -462 21 -103 -1 -212 -60 -295 -12 -17 -161
-155 -333 -307 -171 -153 -360 -322 -421 -376 -142 -127 -184 -149 -298 -155
-97 -5 -164 11 -231 54 l-38 25 -162 -137 c-89 -75 -166 -140 -170 -144 -15
-13 106 -100 208 -150 147 -72 203 -84 375 -84 131 0 153 3 230 28 104 35 181
73 246 122 99 76 833 733 900 806 84 93 142 204 180 348 13 47 18 104 18 205
0 126 -3 148 -28 225 -30 91 -68 170 -113 237 -39 57 -376 436 -483 543 -120
119 -258 196 -421 235 -92 21 -283 19 -381 -5z"/>
<path d="M10314 7983 c8 -30 25 -164 31 -258 7 -98 -8 -300 -30 -406 -35 -166
-127 -384 -216 -517 -138 -202 -347 -393 -577 -529 -256 -151 -523 -238 -1167
-382 -555 -125 -628 -146 -815 -242 -192 -98 -358 -229 -533 -419 -92 -100
-172 -206 -350 -465 -71 -104 -148 -212 -171 -240 -356 -438 -790 -695 -1283
-760 -804 -105 -1556 350 -1778 1078 -49 162 -59 239 -60 442 0 163 3 205 23
294 59 264 178 485 360 673 85 88 133 129 232 201 14 10 6 8 -18 -5 -71 -38
-242 -169 -335 -257 -274 -260 -484 -640 -562 -1018 -38 -183 -48 -313 -42
-537 6 -218 20 -326 66 -517 138 -574 502 -1059 965 -1284 122 -60 308 -119
432 -139 118 -19 365 -21 481 -5 211 29 477 118 700 235 309 161 515 308 863
615 386 340 629 516 880 636 172 82 264 113 415 138 155 26 300 14 512 -39
133 -34 197 -40 273 -26 169 31 296 145 344 309 9 30 16 73 16 95 0 52 5 58
65 89 130 66 221 215 232 377 8 123 -23 226 -112 365 l-35 54 42 11 c156 41
338 98 449 141 714 278 1129 785 1129 1378 0 313 -112 591 -342 852 -68 77
-94 96 -84 62z m-1631 -2389 c61 -21 122 -80 131 -128 11 -58 -16 -134 -65
-183 -53 -54 -103 -78 -204 -98 -44 -9 -102 -27 -130 -39 -48 -22 -123 -82
-113 -91 2 -2 40 3 84 12 l80 17 49 -25 c66 -32 88 -65 93 -136 3 -51 0 -64
-26 -104 -36 -56 -106 -103 -190 -129 -88 -27 -154 -25 -278 10 -266 74 -503
59 -799 -51 -165 -62 -310 -141 -443 -241 -30 -22 -56 -37 -59 -34 -10 9 125
153 228 244 215 191 473 328 703 373 65 12 116 51 116 87 0 34 -32 63 -78 69
-23 3 -42 9 -42 13 0 15 75 73 119 93 81 36 158 46 344 47 128 0 187 4 211 14
80 33 101 103 45 150 -17 14 -37 26 -45 26 -34 0 7 68 61 101 38 24 143 25
208 3z m232 -358 c86 -36 56 -136 -42 -136 -42 0 -93 35 -93 64 0 39 11 57 44
72 40 17 49 17 91 0z m-2608 -1298 c77 -73 -46 -275 -250 -411 -107 -71 -161
-98 -285 -141 -133 -46 -250 -66 -392 -66 -201 0 -373 40 -555 130 -109 53
-295 179 -295 199 0 5 37 -4 83 -20 159 -54 274 -72 472 -72 158 0 194 3 295
26 247 55 432 133 651 274 68 43 135 84 149 90 43 20 101 15 127 -9z m-601
-664 c80 -38 86 -149 12 -194 -87 -53 -238 6 -238 94 0 86 132 144 226 100z
m-423 -95 c40 -49 -1 -117 -84 -140 -58 -15 -170 -16 -239 0 -52 12 -195 76
-205 90 -2 4 34 5 80 3 103 -5 194 10 288 49 82 33 131 33 160 -2z"/>
<path d="M3120 7485 c-52 -16 -123 -73 -145 -116 -21 -39 -19 -85 5 -109 35
-35 62 -34 146 3 44 19 104 42 136 51 59 17 108 60 108 97 0 10 -13 33 -29 51
-27 30 -34 33 -102 35 -44 2 -92 -3 -119 -12z"/>
<path d="M7260 7350 c-19 -10 -233 -184 -475 -387 -242 -202 -591 -494 -775
-648 -402 -336 -422 -355 -439 -418 -26 -91 12 -193 92 -245 36 -23 52 -27
118 -27 93 0 91 -1 325 196 94 79 283 236 419 349 632 523 992 829 1018 866
72 102 30 256 -85 315 -50 25 -150 25 -198 -1z"/>
<path d="M2835 7205 c-30 -29 -31 -35 -4 -69 37 -47 119 -26 119 32 0 24 -44
62 -72 62 -10 0 -30 -11 -43 -25z"/>
<path d="M9754 6906 c-16 -19 -45 -62 -63 -95 -55 -99 -128 -171 -221 -221
-83 -45 -110 -75 -110 -123 0 -29 32 -65 65 -73 87 -22 330 179 411 338 47 92
52 159 15 189 -35 28 -65 24 -97 -15z"/>
<path d="M5335 6890 c-121 -31 -226 -88 -336 -182 -139 -120 -702 -631 -780
-708 -260 -258 -300 -710 -91 -1017 38 -56 124 -156 315 -368 241 -266 325
-336 478 -395 135 -52 198 -62 344 -57 149 5 214 20 333 77 94 45 149 85 313
232 652 583 666 595 719 673 42 62 96 178 116 250 25 95 30 287 9 380 -17 78
-74 224 -100 259 -18 23 -6 31 -200 -133 -134 -113 -146 -126 -140 -150 22
-92 25 -122 20 -170 -8 -66 -28 -125 -60 -172 -13 -20 -111 -115 -217 -211
-106 -95 -278 -250 -381 -343 -104 -94 -207 -183 -230 -198 -64 -43 -136 -60
-236 -55 -107 5 -179 37 -254 111 -81 81 -408 443 -449 499 -52 70 -72 137
-71 233 1 90 18 147 62 207 50 68 809 744 876 780 58 32 65 33 170 33 117 0
151 -11 233 -72 18 -13 37 -23 42 -21 17 6 330 271 330 279 0 13 -141 122
-202 157 -29 17 -96 45 -148 63 -87 30 -107 33 -240 36 -119 2 -159 -1 -225
-17z"/>
<path d="M3235 6501 c-327 -118 -654 -527 -690 -862 -18 -168 57 -289 179
-289 89 0 147 53 186 170 19 54 24 98 30 260 6 174 10 203 34 273 33 98 57
146 111 222 42 60 161 179 210 211 54 36 20 44 -60 15z"/>
<path d="M10140 5797 c-74 -37 -7 -139 70 -107 53 22 49 90 -6 110 -32 12 -34
12 -64 -3z"/>
<path d="M9940 5620 c-19 -5 -64 -22 -100 -38 -36 -16 -96 -38 -135 -50 -96
-30 -133 -54 -155 -105 -47 -105 42 -187 200 -187 105 0 195 35 260 100 55 55
80 109 80 170 0 44 -5 56 -29 81 -16 16 -36 29 -44 29 -9 0 -21 2 -29 4 -7 2
-29 0 -48 -4z"/>
<path d="M2700 4878 c-105 -109 -170 -304 -170 -508 0 -245 75 -414 199 -451
33 -10 44 -9 77 7 60 29 84 74 84 154 0 80 -15 133 -81 288 -74 172 -100 270
-100 372 0 47 5 100 10 119 13 44 9 48 -19 19z"/>
<path d="M3905 4585 c-32 -31 -32 -72 -2 -145 63 -153 201 -283 314 -297 43
-5 53 -2 78 20 22 18 29 33 29 60 0 46 -27 76 -116 128 -72 42 -95 67 -153
166 -52 91 -105 114 -150 68z"/>
<path d="M7825 4169 c-76 -11 -187 -64 -248 -119 -46 -41 -113 -127 -105 -135
2 -3 32 7 67 21 91 37 253 37 394 0 133 -35 180 -34 218 3 61 61 27 144 -81
198 -74 36 -150 46 -245 32z"/>
<path d="M4507 4072 c-40 -44 -4 -116 55 -110 60 6 84 71 42 113 -21 21 -77
19 -97 -3z"/>
<path d="M7572 3890 c-63 -39 -67 -104 -9 -141 46 -29 146 -23 182 11 27 26
33 73 12 101 -37 48 -129 63 -185 29z"/>
</g>
</svg>
